# xmcd CD database file
#
# Track frame offsets:
#	150
#	10698
#	20358
#	31149
#	43329
#	53149
#	65386
#	77202
#	87498
#	98960
#	109145
#	121208
#	131298
#	141325
#	154755
#	163622
#	174961
#	185830
#	198606
#	207122
#	217490
#	227390
#	238305
#	246886
#	257557
#	265701
#	275611
#	285494
#	296329
#	306555
#
# Disc length: 4246 seconds
#
# Revision: 1
# Processed by: cddbd v1.5.2PL0 Copyright (c) Steve Scherf et al.
# Submitted via: CDex 1.51
#
DISCID=ba10941e
DTITLE=Various Artist - The Cosimo Matassa Story CD4_ Rockin' At Cosimo's
DYEAR=2007
DGENRE=Soul/R&B
TTITLE0=Little Richard - Rip It Up
TTITLE1=Little Richard - Ready Teddy
TTITLE2=Shirley and Lee - Let The Good Times Roll
TTITLE3=Huey "Piano" Smith and His Rhythm Aces - Everybody's Whalin'
TTITLE4=Huey "Piano" Smith and His Rhythm Aces - Little Liza Jane
TTITLE5=The Dukes - Teardrop Eyes
TTITLE6=The Dukes - Cotton Picking Hands
TTITLE7=Lloyd Price - Rock 'N' Roll Dance
TTITLE8=Little Richard - The Girl Can't Help It
TTITLE9=Little Richard - Heebie Jeebies
TTITLE10=Fats Domino - Don't Blame It On Me
TTITLE11=Jimmy Beasley - Don't Feel Sorry For Me
TTITLE12=Jimmy Beasley - Little Coquette
TTITLE13=Smiley Lewis - Down Yonder (We Go Ballin')
TTITLE14=Smiley Lewis - Shame Shame Shame
TTITLE15=Roy Montrell - Oooh-Wow
TTITLE16=Roy Montrell - (Everytime I Hear) That Mellow Saxophone
TTITLE17=Lee Allen - Rockin' At Cosimo's
TTITLE18=Edgar Blanchard - Stepping High
TTITLE19=Shirley and Lee - I Feel Good
TTITLE20=Werly Fairburn - I'm A Fool About Your Love
TTITLE21=Werly Fairburn - All The Time
TTITLE22=Clarence "Frogman" Henry - I'm A Country Boy
TTITLE23=Clarence "Frogman" Henry - Ain't Got No Home
TTITLE24=Big Boy Myles and The Sha-Weez - Hickory Dickory Dock
TTITLE25=Big Boy Myles and The Sha-Weez - Just To Hold My Hand
TTITLE26=Art Neville - Oooh-Wee Baby
TTITLE27=Art Neville - Back Home To Me
TTITLE28=Earl King - You Can Fly High
TTITLE29=Earl King - Those Lonely, Lonely Feelings
EXTD=YEAR: 2007
EXTT0=
EXTT1=
EXTT2=
EXTT3=
EXTT4=
EXTT5=
EXTT6=
EXTT7=
EXTT8=
EXTT9=
EXTT10=
EXTT11=
EXTT12=
EXTT13=
EXTT14=
EXTT15=
EXTT16=
EXTT17=
EXTT18=
EXTT19=
EXTT20=
EXTT21=
EXTT22=
EXTT23=
EXTT24=
EXTT25=
EXTT26=
EXTT27=
EXTT28=
EXTT29=
PLAYORDER=
